<svg width="44" height="44" viewBox="0 0 44 44" xmlns="http://www.w3.org/2000/svg"><title>Stroke 2369</title><path d="M1.878 41.994c.66.684 1.58 1.05 2.524 1.002.943-.048 1.945-.628 2.537-1.376l4.54-6.41-2.61-2.703-6.5 4.374c-.755.58-1.29 1.522-1.36 2.476-.07.95.208 1.954.868 2.638zM42.034 1.978a3.36 3.36 0 0 1-.308 4.992l-7.612 5.697-2.64-2.672L37.1 2.287a3.298 3.298 0 0 1 2.4-1.28 3.28 3.28 0 0 1 2.534.97zm-7.92 10.69a3.81 3.81 0 0 1 0 5.343l-17.16 17.372a3.703 3.703 0 0 1-5.28 0l-2.64-2.674a3.813 3.813 0 0 1 0-5.346l17.16-17.367a3.7 3.7 0 0 1 5.28 0l2.64 2.672z" stroke="#909874" stroke-width="2" fill="#FFF" fill-rule="evenodd" stroke-linejoin="round"/></svg>