<?xml version="1.0" encoding="UTF-8" standalone="no"?>
<svg width="44px" height="44px" viewBox="0 0 44 44" version="1.1" xmlns="http://www.w3.org/2000/svg" xmlns:xlink="http://www.w3.org/1999/xlink">
    <!-- Generator: Sketch 3.6.1 (26313) - http://www.bohemiancoding.com/sketch -->
    <title>Stroke 2369</title>
    <desc>Created with Sketch.</desc>
    <defs></defs>
    <g id="Page-1" stroke="none" stroke-width="1" fill="none" fill-rule="evenodd" stroke-linejoin="round">
        <g id="Rectangle-37-+-Stroke-2369" transform="translate(-10.000000, -10.000000)" stroke="#909874" stroke-width="2" fill="#FFFFFF">
            <path d="M11.8783392,51.99416 C12.5391527,52.6781795 13.4575716,53.0447534 14.4021243,52.9956249 C15.3448103,52.948386 16.3472309,52.3682922 16.9389764,51.6200279 L21.4788029,45.2106524 L18.871016,42.5066971 L12.3692826,46.8810203 C11.6151338,47.4611141 11.0812561,48.4021132 11.0103213,49.3563392 C10.9412533,50.3067861 11.2175256,51.3101406 11.8783392,51.99416 L11.8783392,51.99416 Z M52.0343366,11.9775115 C52.7007503,12.6539728 53.0516909,13.5893032 52.993823,14.5435292 C52.9340884,15.4977552 52.4711456,16.3820676 51.7263303,16.9697197 L44.1139074,22.6667324 L41.4743866,19.9948995 L47.1006354,12.2873988 C47.6830473,11.5334658 48.5547986,11.0667453 49.4993513,11.0062795 C50.4401706,10.9477033 51.3660563,11.3010503 52.0343366,11.9775115 L52.0343366,11.9775115 Z M44.1137207,22.6672992 C45.5716173,24.1411532 45.5716173,26.5352213 44.1137207,28.0109648 L26.9549686,45.3816572 C25.4952053,46.8574008 23.1338235,46.8574008 21.6740602,45.3816572 L19.0345394,42.7079349 C17.5766428,41.2321913 17.5766428,38.8419024 19.0345394,37.3623797 L36.1951582,19.9954664 C37.6511881,18.5197228 40.0163033,18.5197228 41.4741999,19.9954664 L44.1137207,22.6672992 L44.1137207,22.6672992 Z" id="Stroke-2369"></path>
        </g>
    </g>
</svg>