<?xml version="1.0" encoding="UTF-8" standalone="no"?>
<svg width="180px" height="180px" viewBox="0 0 180 180" version="1.1" xmlns="http://www.w3.org/2000/svg" xmlns:xlink="http://www.w3.org/1999/xlink">
    <!-- Generator: Sketch 3.6.1 (26313) - http://www.bohemiancoding.com/sketch -->
    <title>Group</title>
    <desc>Created with Sketch.</desc>
    <defs>
        <linearGradient x1="50%" y1="0%" x2="50%" y2="100%" id="linearGradient-1">
            <stop stop-color="#D2E3E7" offset="0%"></stop>
            <stop stop-color="#ABB3B3" offset="100%"></stop>
        </linearGradient>
        <path id="path-2" d="M137.109375,3.06819787e-15 C163.125,3.06819787e-15 180,16.875 180,42.890625 L180,137.109375 C180,163.125 163.125,180 137.109375,180 L42.890625,180 C16.875,180 0,163.125 0,137.109375 L0,42.890625 C0,16.875 16.875,3.06819788e-15 42.890625,3.06819788e-15 L137.109375,3.06819787e-15 Z"></path>
    </defs>
    <g id="Page-1" stroke="none" stroke-width="1" fill="none" fill-rule="evenodd">
        <g id="Group">
            <mask id="mask-3" fill="white">
                <use xlink:href="#path-2"></use>
            </mask>
            <use id="Mask" fill="url(#linearGradient-1)" xlink:href="#path-2"></use>
            <g mask="url(#mask-3)">
                <rect id="Rectangle-1" fill="#F58220" x="0" y="0" width="180" height="180"></rect>
                <path d="M169.2072,63.3499512 C171.5472,65.6899512 171.5472,69.2899512 169.2072,71.8099512 L157.8672,83.3299512 C155.5272,85.6699512 151.9272,85.6699512 149.4072,83.3299512 L146.8872,80.6299512 C144.9072,79.0099512 144.1872,75.7699512 145.2672,74.3299512 C147.2472,73.0699512 146.5272,69.2899512 142.9272,65.8699512 C137.8872,60.6499512 131.4072,60.4699512 128.8872,63.1699512 C127.8072,64.0699512 124.3872,67.6699512 124.3872,67.6699512 L108.9072,52.3699512 L111.4272,49.8499512 C111.4272,49.8499512 112.1472,49.1299512 113.4072,47.6899512 C118.2672,42.8299512 113.2272,37.4299512 113.2272,37.4299512 C99.5472,23.9299512 80.4672,24.1099512 80.4672,24.1099512 L80.2872,19.2499512 C118.8072,9.34995118 133.2072,26.2699512 138.6072,31.4899512 L149.7672,42.6499512 C152.4672,45.3499512 149.7672,53.0899512 153.7272,57.5899512 C155.7072,59.5699512 158.2272,60.2899512 160.0272,60.2899512 C162.1872,58.3099512 165.4272,59.0299512 167.2272,61.0099512 L169.2072,63.3499512 L169.2072,63.3499512 Z M100.8072,91.7899512 L152.2872,138.949951 C157.5072,144.169951 157.3272,152.629951 152.1072,158.029951 C146.7072,163.249951 138.2472,163.249951 133.0272,157.849951 L84.6072,108.169951 L39.9672,159.649951 C37.0872,162.889951 31.6872,162.889951 28.6272,159.649951 L20.3472,151.189951 C17.1072,148.309951 17.1072,142.909951 20.3472,139.849951 L69.6672,92.8699512 L52.2072,76.1299512 C46.4472,70.7299512 43.2072,68.9299512 38.5272,70.3699512 C33.8472,71.9899512 27.3672,71.9899512 21.2472,68.0299512 C8.2872,59.5699512 9.0072,43.9099512 9.0072,43.9099512 L10.2672,42.1099512 C10.2672,42.1099512 21.9672,49.6699512 23.5872,50.5699512 C25.5672,52.0099512 32.0472,55.0699512 37.8072,45.8899512 C43.9272,36.8899512 38.8872,31.1299512 37.0872,30.0499512 C35.6472,29.1499512 23.7672,21.4099512 23.7672,21.4099512 L24.8472,19.7899512 C24.8472,19.7899512 38.5272,12.7699512 51.3072,20.5099512 C51.3072,20.8699512 54.5472,22.8499512 55.8072,23.9299512 C64.0872,31.3099512 64.0872,39.4099512 62.4672,46.2499512 C61.2072,52.3699512 62.4672,54.5299512 67.3272,59.7499512 L84.7872,77.2099512 L105.6672,55.7899512 L120.7872,71.2699512 L100.8072,91.7899512 L100.8072,91.7899512 Z M147.4272,153.529951 C150.1272,151.009951 150.1272,146.149951 147.4272,143.449951 C144.7272,140.749951 140.2272,140.749951 137.3472,143.449951 C134.8272,146.149951 134.8272,150.829951 137.3472,153.349951 C140.4072,156.049951 144.7272,156.409951 147.4272,153.529951 L147.4272,153.529951 Z" id="Shape" fill="#FFFFFF"></path>
            </g>
        </g>
    </g>
</svg>