<svg width="24" height="23" viewBox="0 0 24 23" xmlns="http://www.w3.org/2000/svg"><title>Fill 163</title><path d="M23.855 11.257L13.705 1.092A2.488 2.488 0 0 0 11.933.37a2.69 2.69 0 0 0-1.91.796 2.7 2.7 0 0 0-.796 1.845c-.018.702.238 1.355.73 1.845L14.277 9H2.03C.76 9 0 10.27 0 11.5c0 1.217.702 2.51 2.002 2.51H14.28l-4.157 4.158a2.436 2.436 0 0 0-.708 1.736c0 .708.293 1.41.806 1.922a2.742 2.742 0 0 0 1.92.806c.663 0 1.28-.25 1.737-.707l9.976-9.96a.5.5 0 0 0 .002-.708" fill="#F58220" fill-rule="evenodd"/></svg>