<svg width="166" height="166" viewBox="0 0 166 166" xmlns="http://www.w3.org/2000/svg" xmlns:xlink="http://www.w3.org/1999/xlink"><title>downloads-logos-print-ram_logo_2_clr</title><defs><path id="a" d="M.06 166h165.23V.71H.06V166z"/></defs><g fill="none" fill-rule="evenodd"><mask id="b" fill="#fff"><use xlink:href="#a"/></mask><path d="M82.672 7.307c-41.945 0-76.07 34.1-76.07 76.017 0 41.95 34.125 76.078 76.07 76.078 41.914 0 76.016-34.127 76.016-76.078 0-41.916-34.102-76.017-76.016-76.017zm0 158.693C37.086 166 0 128.938 0 83.38 0 37.798 37.086.71 82.672.71c45.555 0 82.617 37.087 82.617 82.67 0 45.558-37.063 82.62-82.618 82.62z" fill="#A47F1D" mask="url(#b)"/><path d="M107.31 87.81c-1.236.75-3.978.376-5.1 2.26-1.503 2.47-1.83 2.838-2.474 2.625-1.447-5.8 5.1-13.215 7.627-10.9 1.985 1.768 2.043 4.668-.054 6.014zm1.503-9.507c-1.504-.807-3.543-1.188-5.368-.537-2.738.752-3.603 3.273-5.22 5.527-1.55 2.363-4.13 4.03-6.28 4.893-1.347 3.11.97 10.476 3.172 13.857 1.233 2.527 6.332 8.648 5.262 17.94 4.026-5.852 7.245-12.084 8.59-15.846 2.368-5.047 3.44-13.055 3.225-18.48-.32-2.634-.963-5.96-3.382-7.354zM63.04 90.07c-1.073-1.884-3.813-1.51-5.102-2.26-2.088-1.347-1.985-4.247-.05-6.015 2.526-2.315 9.08 5.1 7.63 10.9-.647.213-.967-.156-2.48-2.625zm7.095 11.973c2.205-3.38 4.517-10.746 3.174-13.857-2.15-.862-4.732-2.53-6.292-4.893-1.56-2.254-2.467-4.775-5.205-5.527-1.83-.65-3.875-.27-5.376.537-2.416 1.394-3.003 4.72-3.382 7.353-.16 5.426.855 13.434 3.218 18.48 1.4 3.763 4.622 9.995 8.647 15.848-1.125-9.293 4.03-15.414 5.215-17.94zM49.188 67.445c-2.852.485-3.387 4.68-1.243 7.2-1.98-.215-4.937-2.954-11.922-.754-2.414.756-5.156 1.725-5.533 4.837-.27 2.312 2.848 4.783 4.834 6.236 2.045 1.553 5.268 1.664 6.932 4.19 1.394 2.144 2.52 5.42 2.904 8.378.64 5.7.535 12.84 4.512 17.572.746-2.8-1.293-9.08-1.34-17.192-.064-3.01-1.19-6.45-2.957-8.71 3.273-.264 3.326.167 3.596-.856.32-1.02-.322-2.15-1.075-3.06-2.364-2.737-5.745-1.29-8.758-2.26-1.985-.696-5.043-1.715-5.207-4.506-.106-1.88 5.804-2.313 5.804-2.313 4.723.373 4.184 3.06 7.46 3.326 2.69.22 3.818-2.626 4.68-4.346 1.29-2.74 2.79-8.596-2.686-7.74zm86.375 11.282c-.375-3.112-3.114-4.08-5.528-4.836-6.988-2.2-9.94.54-11.98.756 2.2-2.52 1.662-6.716-1.233-7.2-5.43-.858-3.927 5-2.634 7.738.86 1.72 1.93 4.566 4.617 4.347 3.28-.266 2.787-2.952 7.52-3.325 0 0 5.907.432 5.808 2.313-.22 2.79-3.285 3.81-5.268 4.505-2.955.97-6.345-.476-8.76 2.262-.746.91-1.343 2.04-1.078 3.06.27 1.022.387.59 3.657.854-1.83 2.26-2.9 5.7-2.954 8.71-.1 8.112-2.148 14.393-1.343 17.192 3.926-4.733 3.867-11.87 4.515-17.57.373-2.96 1.446-6.235 2.903-8.38 1.664-2.525 4.836-2.636 6.925-4.19 1.99-1.452 5.1-3.923 4.833-6.235zm-52.75 18.435v-.006c-.02 0-.036.004-.055.004-.016 0-.03-.004-.05-.004v.006c-2.565.06-3.954 2.227-6.34 4.723-4.134 4.51-12.626 15.736-6.446 21.056 2.738 2.365 6.342 3.976 11.28 2.47 1.237-.855.536-3.38-.104-4.515-2.313-3.004-5.91-1.82-6.932-3.325-.97-1.45-.322-2.584.268-3.328.86-1.074 2.254-.808 3.437-.486 2.1.475 3.525 1.353 4.84 2.64v.096c.017-.017.034-.03.048-.047l.056.047v-.1c1.264-1.286 2.743-2.165 4.834-2.636 1.13-.322 2.58-.588 3.387.486.645.744 1.235 1.88.27 3.328-1.024 1.506-4.567.32-6.88 3.325-.64 1.134-1.398 3.66-.167 4.515 5.002 1.506 8.547-.105 11.285-2.47 6.234-5.32-2.254-16.545-6.447-21.055-2.326-2.494-3.774-4.664-6.282-4.723zm8.11 29.754c-2.728.27-5.72.908-8.134.86-2.415.048-5.41-.59-8.138-.86-.437-.05-.756.27-.756.27-1.59 3.396 7.55 5.273 8.866 5.213 1.318.06 10.508-1.818 8.918-5.214 0 0-.325-.32-.756-.27zm38.872 8.47c-2.28.91-4.67 1.292-7.002.216-1.836-.805-2.982-2.633-3.31-4.678-.424-3.006 1.253-6.55 2.712-8.918 2.016-3.377 6.625-9.287 11.938-13.21 7.545-5.59 12.805-7.147 10.855-8.435-1.36-.913-8.515 3.013-9.925 3.763-8.036 4.137-19.108 16.113-20.41 24.983-1.024 6.98 7.003 11.972 12.48 10.09-17.8 15.17-37.543 15.74-44.434 15.902v.002l-.028-.002-.03.002v-.002c-6.93-.162-26.732-.73-44.486-15.9 5.48 1.88 13.51-3.112 12.48-10.092-1.304-8.87-12.425-20.846-20.398-24.983-1.412-.75-8.578-4.676-9.933-3.762-1.953 1.29 3.306 2.847 10.85 8.437 5.322 3.922 9.88 9.832 11.884 13.21 1.52 2.366 3.2 5.91 2.767 8.917-.328 2.045-1.518 3.873-3.31 4.678-2.337 1.076-4.718.695-7.052-.215-3.578-1.293-6.457-4.082-8.953-7.47-4.72-6.393-9.328-13.75-11.668-21.538 2.004 4.458 14.705 23.097 20.348 23.366 5.8.322-5.643-15.146-13.512-21.592-1.898-1.558-4.07-3.388-4.496-6.293-.336-2.096.752-3.49 2.816-3.594 3.15-.11 11.342 4.134 11.446 3.976-14.21-25.515 7.543-38.406-1.46-43.996-3.154-1.992-9.818 0-13.458.537 33.48-19.77 39.332-.053 49.426 9.022 1.574 1.453 8.68 0 10.037-1.664 1.792-2.148 5.37-9.886 1.3-14.988-5.852-7.41-30.163-29.28-52.3-9.94C35.708 23.825 60.77 11 82.7 11.613c21.93-.614 46.827 12.212 57.62 29.6-22.195-19.34-46.44 2.53-52.36 9.94-4.01 5.102-.483 12.84 1.306 14.99 1.41 1.663 8.515 3.116 10.09 1.663 10.093-9.075 15.953-28.793 49.423-9.022-3.632-.537-10.358-2.53-13.448-.537-9.016 5.59 12.688 18.48-1.47 43.996.11.158 8.306-4.086 11.45-3.976 2.06.105 3.15 1.498 2.82 3.595-.433 2.906-2.657 4.736-4.503 6.294-7.87 6.446-19.314 21.914-13.566 21.592 5.696-.27 18.397-18.908 20.4-23.367-2.33 7.786-6.993 15.144-11.667 21.538-2.496 3.387-5.363 6.176-9.002 7.47zM82.668 8.202C41.254 8.2 7.52 41.94 7.52 83.356c0 41.364 33.734 75.155 75.148 75.155 41.36 0 75.102-33.79 75.102-75.155C157.77 41.94 124.03 8.2 82.668 8.2z" fill="#FFF"/><path d="M107.363 81.795c-2.527-2.315-9.074 5.1-7.627 10.9.643.213.97-.156 2.473-2.625 1.122-1.884 3.864-1.51 5.1-2.26 2.096-1.347 2.038-4.247.053-6.015zm-41.845 10.9c1.45-5.8-5.104-13.215-7.63-10.9-1.935 1.768-2.038 4.668.05 6.014 1.29.75 4.03.376 5.1 2.26 1.513 2.47 1.833 2.838 2.48 2.625zm65.212-7.732c-2.09 1.553-5.26 1.664-6.925 4.19-1.457 2.144-2.53 5.42-2.903 8.378-.648 5.7-.59 12.84-4.515 17.572-.805-2.8 1.242-9.08 1.343-17.192.053-3.01 1.125-6.45 2.954-8.71-3.27-.264-3.387.167-3.657-.856-.265-1.02.332-2.15 1.078-3.06 2.415-2.737 5.805-1.29 8.76-2.26 1.983-.696 5.05-1.715 5.268-4.506.1-1.88-5.807-2.313-5.807-2.313-4.734.373-4.242 3.06-7.52 3.326-2.687.22-3.76-2.626-4.618-4.346-1.293-2.74-2.797-8.596 2.634-7.74 2.895.486 3.432 4.68 1.233 7.202 2.04-.216 4.992-2.955 11.98-.755 2.414.756 5.153 1.725 5.528 4.837.267 2.312-2.844 4.783-4.833 6.236zm-21.76 19.174c-1.345 3.762-4.564 9.994-8.59 15.847 1.07-9.293-4.03-15.414-5.263-17.94-2.2-3.382-4.52-10.747-3.172-13.858 2.15-.862 4.73-2.53 6.28-4.893 1.617-2.254 2.482-4.775 5.22-5.527 1.825-.65 3.864-.27 5.368.537 2.42 1.394 3.062 4.72 3.382 7.353.215 5.426-.857 13.434-3.224 18.48zM95.544 122.94c-2.738 2.365-6.283 3.976-11.285 2.47-1.23-.855-.473-3.38.168-4.515 2.312-3.004 5.855-1.82 6.88-3.325.964-1.45.374-2.584-.27-3.328-.81-1.074-2.26-.808-3.388-.486-2.09.47-3.57 1.35-4.834 2.637v.1c-.02-.018-.037-.03-.056-.048-.014.018-.03.03-.05.047v-.097c-1.313-1.286-2.74-2.164-4.837-2.64-1.182-.32-2.577-.587-3.436.487-.59.744-1.24 1.88-.268 3.328 1.02 1.506 4.62.32 6.932 3.325.64 1.134 1.34 3.66.105 4.515-4.94 1.506-8.543-.105-11.28-2.47-6.18-5.32 2.31-16.545 6.446-21.055 2.384-2.496 3.773-4.664 6.34-4.723v-.006c.017 0 .032.004.048.004.02 0 .035-.004.056-.004v.006c2.508.06 3.956 2.23 6.282 4.723 4.193 4.51 12.68 15.736 6.447 21.056zm-12.78 9.46c-1.318.06-10.458-1.818-8.867-5.214 0 0 .32-.32.756-.27 2.727.27 5.723.908 8.137.86 2.413.048 5.405-.59 8.134-.86.43-.05.756.27.756.27 1.59 3.396-7.6 5.273-8.918 5.213zm-26.49-28.263c-2.363-5.047-3.377-13.055-3.218-18.48.38-2.634.966-5.96 3.382-7.354 1.5-.807 3.547-1.188 5.376-.537 2.738.752 3.646 3.273 5.205 5.527 1.56 2.363 4.142 4.03 6.29 4.893 1.344 3.11-.968 10.476-3.173 13.857-1.184 2.527-6.34 8.648-5.215 17.94-4.025-5.852-7.248-12.084-8.647-15.846zM47.195 79.53c-3.277-.266-2.738-2.952-7.46-3.325 0 0-5.91.432-5.805 2.313.164 2.79 3.222 3.81 5.207 4.505 3.013.97 6.394-.476 8.758 2.262.753.91 1.394 2.04 1.076 3.06-.27 1.022-.322.59-3.595.854 1.768 2.26 2.893 5.7 2.957 8.71.047 8.112 2.086 14.393 1.34 17.192-3.977-4.733-3.87-11.87-4.512-17.57-.383-2.96-1.51-6.235-2.904-8.38-1.664-2.525-4.887-2.636-6.932-4.19-1.986-1.452-5.103-3.923-4.834-6.235.377-3.112 3.12-4.08 5.533-4.836 6.985-2.2 9.942.54 11.922.756-2.144-2.52-1.61-6.716 1.243-7.2 5.476-.858 3.976 5 2.687 7.738-.863 1.72-1.992 4.566-4.68 4.347zm82.87 50.216c-5.75.322 5.695-15.146 13.564-21.592 1.845-1.558 4.07-3.388 4.503-6.293.328-2.096-.76-3.49-2.822-3.594-3.142-.11-11.337 4.134-11.45 3.976 14.16-25.515-7.544-38.406 1.472-43.996 3.09-1.992 9.816 0 13.447.537-33.47-19.77-39.33-.053-49.425 9.022-1.574 1.453-8.68 0-10.09-1.664-1.788-2.148-5.316-9.886-1.304-14.988 5.92-7.41 30.165-29.28 52.36-9.94C129.527 23.825 104.63 11 82.7 11.613 60.77 11 35.706 23.825 24.97 41.213c22.137-19.34 46.448 2.53 52.3 9.94 4.07 5.102.492 12.84-1.3 14.99-1.357 1.663-8.462 3.116-10.036 1.663-10.094-9.075-15.946-28.793-49.426-9.022 3.64-.537 10.304-2.53 13.457-.537 9.004 5.59-12.75 18.48 1.46 43.996-.103.158-8.294-4.086-11.445-3.976-2.064.105-3.152 1.498-2.816 3.595.426 2.906 2.598 4.736 4.496 6.294 7.87 6.446 19.313 21.914 13.512 21.592-5.643-.27-18.344-18.908-20.348-23.367 2.34 7.786 6.95 15.144 11.668 21.538 2.496 3.387 5.375 6.176 8.953 7.47 2.334.91 4.715 1.29 7.05.214 1.794-.805 2.984-2.633 3.312-4.678.433-3.006-1.248-6.55-2.768-8.918-2.005-3.377-6.563-9.287-11.884-13.21-7.545-5.59-12.804-7.147-10.85-8.435 1.354-.913 8.52 3.013 9.932 3.763 7.973 4.137 19.094 16.113 20.397 24.983 1.03 6.98-6.998 11.972-12.48 10.09 17.755 15.17 37.556 15.74 44.486 15.902v.002l.032-.002.027.002v-.002c6.89-.162 26.632-.73 44.433-15.9-5.477 1.88-13.504-3.112-12.48-10.092 1.302-8.87 12.374-20.846 20.41-24.983 1.41-.75 8.566-4.676 9.925-3.762 1.95 1.29-3.31 2.847-10.855 8.437-5.313 3.922-9.922 9.832-11.938 13.21-1.46 2.366-3.136 5.91-2.713 8.917.33 2.045 1.475 3.873 3.31 4.678 2.333 1.076 4.724.695 7.003-.215 3.64-1.293 6.506-4.082 9.002-7.47 4.674-6.393 9.336-13.75 11.668-21.538-2.004 4.458-14.705 23.097-20.4 23.366zM82.667 158.51c-41.414 0-75.148-33.79-75.148-75.155C7.52 41.94 41.254 8.2 82.668 8.2c41.36 0 75.102 33.74 75.102 75.155 0 41.364-33.74 75.155-75.102 75.155zm.004-153.078c-42.924 0-77.945 34.978-77.945 77.892 0 42.924 35.02 77.953 77.945 77.953 42.922 0 77.89-35.03 77.89-77.953 0-42.914-34.968-77.892-77.89-77.892z" fill="#0F5C45"/></g></svg>