<svg viewBox="0 0 317 57" xmlns="http://www.w3.org/2000/svg" fill-rule="evenodd" clip-rule="evenodd" stroke-linejoin="round" stroke-miterlimit="1.414"><path d="M47.086.77c-.482 1.416-.797 1.918-2.594 1.918l-1.667-.182-.168-.032L38.9 1.432C36.337.76 32.32.032 28.764.032 12.96.032 0 12.2 0 28.242c0 13.366 9.833 28.44 27.884 28.44 8.858 0 13.592-3.136 18.858-7.232.046-.072.078-2.232.078-2.232v-.456l-.328.318c-6.622 6.536-15.07 7.056-17.504 7.056-13.06 0-21.83-10.715-21.83-26.064 0-15.31 9.083-26.024 21.606-26.024 5.994 0 16.06 3.168 17.605 11.688.084.085 1.26.173 1.26.173.102-.08.195-.15.715-12.934-.093-.107-1.26-.206-1.26-.206M59.513.86h37.344l-.765 8.588h-.894c-.25-2.376-1.62-5.998-8.496-5.998H71.91v23.392h13.768c5.926 0 6.776-2.75 7.214-5.43h.877v13.252h-.878c-.26-2.456-1.288-5.355-7.214-5.355H71.91v20.004c0 3.835 2.846 5.288 6.022 5.288h.866v1.387H58.764V54.6h.46c3.262 0 6.13-1.608 6.13-5.288V7.616c0-5.296-4.068-5.568-6.13-5.568h-.476L59.513.86zM155.97 56.053h-1.36L116.18 8.09h-.19v38.715c0 3.107.356 4.976 1.534 6.272.96 1.043 2.787 1.824 5.016 1.824v1.153h-15.218V54.9c2.22 0 3.752-.612 4.802-1.83 1.118-1.337 1.36-2.08 1.36-6.233v-34.18c0-4.5.526-8.86-2.314-10.196-1.136-.538-2.846-.428-3.88-.428V.87h11.5l34.446 42.95h.195V11.555c0-4.234-.155-7.178-2.053-8.424-1.155-.757-3.147-1.098-5.128-1.098V.87h16.64v1.194c-2.01 0-3.552.053-4.648.776-2.152 1.117-2.275 4.674-2.275 8.72v44.493zM237.67 3.736c1.227-.23 3.393-.448 5.686-.448 9.453 0 13.213 6.232 13.213 13.752 0 11.133-7.3 13.173-12.827 13.173-2.838 0-4.846-.3-6.072-.536V3.737zm-12.463-1.68h.762c1.263.128 5.15-.04 5.15 5.568v41.79c0 4.682-3 5.412-5.913 5.487v1.182h18.456v-1.18c-2.382-.076-5.992-.35-5.992-5.49V32.13c1.454.16 3.77.472 6.305.472 13.738 0 19.36-8.28 19.36-15.72 0-7.618-6.454-16.016-18.747-16.016h-19.38v1.19zM199.708 35.517H181.04l9.412-23.075 9.256 23.075zm1.056 2.517l2.938 6.8c.656 1.627 1.966 4.595 1.966 6.406 0 2.864-2.043 3.512-5.563 3.677v1.272h20.39v-1.273c-6.054-.25-7.608-4.832-9.65-9.74L192.437 0h-.51L172.46 46.75c-2.46 5.722-4.17 7.852-8.427 8.268v1.17h17.008v-1.17c-3.023-.245-6.295-.58-6.295-3.602 0-1.552 1.14-4.376 1.803-5.787l3.27-7.596h20.946zM295.953 35.517h-18.658l9.408-23.075 9.25 23.075zm1.06 2.517l2.94 6.8c.65 1.627 1.966 4.595 1.966 6.406 0 2.864-2.044 3.512-5.567 3.677v1.272h20.395v-1.273c-6.06-.25-7.608-4.832-9.66-9.74L288.68 0h-.505l-19.47 46.75c-2.45 5.722-4.17 7.852-8.424 8.268v1.17h17.015v-1.17c-3.032-.245-6.304-.58-6.304-3.602 0-1.552 1.145-4.376 1.806-5.787l3.272-7.596h20.944z" fill="#fff" fill-rule="nonzero"/></svg>