<?xml version="1.0" standalone="no"?>
<!DOCTYPE svg PUBLIC "-//W3C//DTD SVG 1.1//EN" "http://www.w3.org/Graphics/SVG/1.1/DTD/svg11.dtd">
<svg width="100%" height="100%" viewBox="0 0 317 57" version="1.1" xmlns="http://www.w3.org/2000/svg" xmlns:xlink="http://www.w3.org/1999/xlink" xml:space="preserve" style="fill-rule:evenodd;clip-rule:evenodd;stroke-linejoin:round;stroke-miterlimit:1.41421;">
    <g transform="matrix(1,0,0,1,-376.819,-150)">
        <g>
            <g transform="matrix(2.66667,0,0,2.66667,186.145,-70.5819)">
                <path d="M89.16,83.007C88.979,83.538 88.861,83.726 88.187,83.726L87.562,83.658L87.499,83.646L86.09,83.255C85.129,83.003 83.623,82.73 82.289,82.73C76.363,82.73 71.503,87.293 71.503,93.309C71.503,98.321 75.19,103.974 81.959,103.974C85.281,103.974 87.056,102.798 89.031,101.262C89.048,101.235 89.06,100.425 89.06,100.425L89.06,100.254L88.937,100.373C86.454,102.824 83.286,103.019 82.373,103.019C77.476,103.019 74.187,99.001 74.187,93.245C74.187,87.504 77.593,83.486 82.289,83.486C84.537,83.486 88.312,84.674 88.891,87.869C88.923,87.901 89.364,87.934 89.364,87.934C89.402,87.904 89.437,87.878 89.632,83.084C89.597,83.044 89.16,83.007 89.16,83.007" style="fill:white;fill-rule:nonzero;"/>
            </g>
            <g transform="matrix(2.66667,0,0,2.66667,186.145,-70.5819)">
                <path d="M93.82,83.041L107.824,83.041L107.537,86.261L107.202,86.261C107.108,85.37 106.594,84.012 104.016,84.012L98.469,84.012L98.469,92.784L103.632,92.784C105.854,92.784 106.173,91.753 106.337,90.748L106.666,90.748L106.666,95.717L106.337,95.717C106.24,94.796 105.854,93.709 103.632,93.709L98.469,93.709L98.469,101.211C98.469,102.649 99.536,103.194 100.727,103.194L101.052,103.194L101.052,103.714L93.539,103.714L93.539,103.194L93.712,103.194C94.935,103.194 96.01,102.591 96.01,101.211L96.01,85.574C96.01,83.588 94.485,83.486 93.712,83.486L93.533,83.486L93.82,83.041Z" style="fill:white;fill-rule:nonzero;"/>
            </g>
            <g transform="matrix(2.66667,0,0,2.66667,186.145,-70.5819)">
                <path d="M129.991,103.738L129.481,103.738L115.071,85.752L115,85.752L115,100.27C115,101.435 115.133,102.136 115.575,102.622C115.935,103.013 116.62,103.306 117.456,103.306L117.456,103.738L111.749,103.738L111.749,103.306C112.582,103.306 113.156,103.076 113.55,102.619C113.969,102.118 114.06,101.839 114.06,100.282L114.06,87.465C114.06,85.777 114.257,84.142 113.192,83.641C112.766,83.439 112.125,83.48 111.737,83.48L111.737,83.044L116.05,83.044L128.967,99.151L129.04,99.151L129.04,87.051C129.04,85.463 128.982,84.359 128.27,83.892C127.837,83.608 127.09,83.48 126.347,83.48L126.347,83.044L132.587,83.044L132.587,83.492C131.833,83.492 131.255,83.512 130.844,83.783C130.037,84.202 129.991,85.536 129.991,87.053L129.991,103.738Z" style="fill:white;fill-rule:nonzero;"/>
            </g>
            <g transform="matrix(2.66667,0,0,2.66667,186.145,-70.5819)">
                <path d="M160.629,84.119C161.089,84.033 161.901,83.951 162.761,83.951C166.306,83.951 167.716,86.288 167.716,89.108C167.716,93.283 164.979,94.048 162.906,94.048C161.842,94.048 161.089,93.935 160.629,93.847L160.629,84.119ZM155.955,83.489L156.241,83.489C156.715,83.537 158.173,83.474 158.173,85.577L158.173,101.248C158.173,103.004 157.048,103.278 155.955,103.306L155.955,103.749L162.876,103.749L162.876,103.306C161.983,103.278 160.629,103.175 160.629,101.248L160.629,94.767C161.174,94.827 162.042,94.944 162.993,94.944C168.145,94.944 170.253,91.839 170.253,89.049C170.253,86.192 167.833,83.043 163.223,83.043L155.955,83.043L155.955,83.489Z" style="fill:white;fill-rule:nonzero;"/>
            </g>
            <g transform="matrix(2.66667,0,0,2.66667,186.145,-70.5819)">
                <path d="M146.393,96.037L139.393,96.037L142.922,87.384L146.393,96.037ZM146.789,96.981L147.891,99.531C148.137,100.141 148.628,101.254 148.628,101.933C148.628,103.007 147.862,103.25 146.542,103.312L146.542,103.789L154.188,103.789L154.188,103.312C151.918,103.218 151.335,101.5 150.569,99.659L143.667,82.718L143.476,82.718L136.175,100.249C135.253,102.395 134.611,103.194 133.015,103.35L133.015,103.789L139.393,103.789L139.393,103.35C138.259,103.258 137.032,103.132 137.032,101.999C137.032,101.417 137.46,100.358 137.708,99.829L138.934,96.981L146.789,96.981Z" style="fill:white;fill-rule:nonzero;"/>
            </g>
            <g transform="matrix(2.66667,0,0,2.66667,186.145,-70.5819)">
                <path d="M182.485,96.037L175.488,96.037L179.016,87.384L182.485,96.037ZM182.882,96.981L183.985,99.531C184.229,100.141 184.722,101.254 184.722,101.933C184.722,103.007 183.956,103.25 182.635,103.312L182.635,103.789L190.283,103.789L190.283,103.312C188.011,103.218 187.43,101.5 186.66,99.659L179.758,82.718L179.568,82.718L172.267,100.249C171.348,102.395 170.703,103.194 169.108,103.35L169.108,103.789L175.488,103.789L175.488,103.35C174.351,103.258 173.124,103.132 173.124,101.999C173.124,101.417 173.553,100.358 173.801,99.829L175.028,96.981L182.882,96.981Z" style="fill:white;fill-rule:nonzero;"/>
            </g>
        </g>
    </g>
</svg>
